<?xml version="1.0" encoding="UTF-8"?>
<svg id="Layer_1" data-name="Layer 1" xmlns="http://www.w3.org/2000/svg" viewBox="0 0 1080 1080">
  <defs>
    <style>
      .cls-1 {
        font-size: 74.23px;
      }

      .cls-1, .cls-2 {
        fill: #2d2d2d;
        font-family: ExpoArabic-SemiBold, 'Expo Arabic';
        font-weight: 600;
      }

      .cls-2 {
        font-size: 43.38px;
      }

      .cls-3 {
        fill: #fbbf22;
      }

      .cls-4 {
        fill: #dd9f13;
      }

      .cls-5 {
        fill: #cb4211;
        opacity: .3;
      }
    </style>
  </defs>
  <g>
    <circle class="cls-4" cx="559.78" cy="358.55" r="16.27"/>
    <path class="cls-4" d="M742.9,674.87c-5.01,31.05-31.82,57.13-62.65,62.51-43.97,7.67-88.62-15.64-116.57-48.51-.39-.47-.77-.93-1.15-1.36-5.32-6.05-11.07-14.59-14.4-19.75-1.78-2.76-3.36-5.64-4.74-8.62h0c-1.64-3.53-3.54-6.93-5.74-10.13-15.41-22.49-40.07-42.66-68.48-40.53-14.52,1.08-27.75,7.91-37.03,19.03-5.28,6.33-5.83,8.11-2.87,11.19-11.68-11.33-18.38-23.77-18.38-23.77,25.99-31.33,66.51-38.59,104.64-27.3,24.43,7.25,45.96,23.95,63.53,41.8l24.65,27.55c14.27,14.98,33.74,28.18,53.63,34.34.8.25,1.62.48,2.43.72,27.93,7.81,57.92,1.65,81.17-15.69l1.95-1.46Z"/>
    <path class="cls-3" d="M664.05,467.87c23.42,61.12,10.01,131.67-36.44,179.01,0,0-5.39,5.15-13.05,11.59-2.09-1.91-4.11-3.89-6.06-5.94l-19.81-22.14c3.54-4.14,7.31-8.94,11.21-14.48,20.51-30.01,24.73-67.6,24.44-103.19-48.44,8.55-83.56-36.64-61.76-81.85,9.14-18.96,27.87-25.23,39.4-42.08,25.92-37.89-2.56-73.32-41.5-82.14-49.32-11.17-102.4,16.64-134.39,52.89-58.53,66.33-64.92,166.89-15.2,240.07,0,0,.71,1.3,2.06,3.49,3.08,4.95,9.49,14.39,18.6,23.23.08.08.16.15.24.24,1.3,1.33,3.14,2.87,5.46,4.98.25.23.51.47.77.71,28.39,26.25,61.14,39.63,100.12,31.02,1.34,2.77,2.85,5.46,4.49,8,3.7,5.73,9.11,13.7,14.31,19.75-74.55,24-158.13-2.36-195.66-75.45-46.04-89.66-21.17-200.8,47.57-271.08,13.96-14.28,31.25-28.54,49.29-37.09.03-.03.04-.08.04-.12,0-.16-.18-.37-.51-.61-12.73-9.23-22.85-21.65-27.71-36.6-9.6-29.47-14.86-67.6,30.63-50.39l20.36,10.59c-3.84-10.01-20.57-39.53-2.47-43.19,24.57-4.98,53.63,16.3,68.7,34l14.16,20.06c1.29-10.58-1.75-25.25,0-35.31,2.5-14.42,25.74-.45,32.01,4.93,15.84,13.54,26.68,35.93,32.26,58.92,8.12,45.48-2.65,67.21-2.29,67.38,21.53.18,53.2,38.28,53.2,38.28-.43.05-.87.12-1.3.2-2.4.38-7.25,1.15-11.25,1.79-2.72.42-5.05.8-5.97.96-1.98.34-4.04.75-6.13,1.2-11.4,2.14-22.32,4.49-32.76,7,11.68,18.51,20.05,32.62,26.29,43.82.5.9.99,1.78,1.46,2.64.86,1.59,1.72,3.15,2.53,4.68.27.49.53.97.78,1.45,2.32,4.27,4.36,8.1,5.87,10.99,3.03,5.82,5.7,11.75,8,17.79Z"/>
    <path class="cls-5" d="M663.97,377.35c3.79-.64,7.55-1.24,11.25-1.79-2.4.38-7.25,1.15-11.25,1.79Z"/>
  </g>
  <text class="cls-2" transform="translate(264.16 891.02)"><tspan x="0" y="0">AL-QUDAIRANI COMPANY</tspan></text>
  <text class="cls-1" transform="translate(266.27 816.46)"><tspan x="0" y="0">شركــة القــديراني</tspan></text>
</svg>